Coordinates
version=1
nRows=17
nColumns=36
inDegrees=yes

Units are S.I. units (second, meters, Newtons, ...)
If the header above contains a line with 'inDegrees', this indicates whether rotational values are in degrees (yes) or radians (no).

endheader
time	pelvis_tilt	pelvis_list	pelvis_rotation	pelvis_tx	pelvis_ty	pelvis_tz	hip_flexion_r	hip_adduction_r	hip_rotation_r	knee_angle_r	knee_angle_r_beta	ankle_angle_r	subtalar_angle_r	mtp_angle_r	hip_flexion_l	hip_adduction_l	hip_rotation_l	knee_angle_l	knee_angle_l_beta	ankle_angle_l	subtalar_angle_l	mtp_angle_l	lumbar_extension	lumbar_bending	lumbar_rotation	arm_flex_r	arm_add_r	arm_rot_r	elbow_flex_r	pro_sup_r	arm_flex_l	arm_add_l	arm_rot_l	elbow_flex_l	pro_sup_l
      0.00000000	      4.11690001	      1.48916421	     -0.30035385	     -0.98693637	      1.31952674	     -0.08555149	     -5.39192827	     -2.17003279	      7.13982912	      3.68185736	      0.06426053	      9.30197982	     -9.41775745	     -5.69410306	     -5.09424704	      0.16978139	      3.21461741	      2.69968191	      0.04711834	      8.27783664	     -6.60284017	     -5.69410306	    -16.82816825	     -0.34415375	      0.93523567	     11.11471772	     -5.74481280	     28.96067443	     25.59080404	     71.04441934	      8.47835962	     -6.12900863	     25.39846703	     27.36554784	     66.06615102
      0.00416670	      4.85082354	      1.37830746	     -0.51093174	     -0.98847678	      1.31893677	     -0.08520250	     -6.55513704	     -1.93369931	      8.81162358	      2.97980631	      0.05200743	     11.29534382	     -9.08323986	     -5.78946590	     -6.10647623	      0.29436980	      4.60063252	      2.28166803	      0.03982262	      8.19524040	     -7.93194119	     -5.78946590	    -17.54562915	     -0.22994604	      1.34385515	     11.61348193	     -5.82230114	     28.98440053	     25.54045235	     71.10389364	      8.91928525	     -5.88200310	     25.39688660	     27.86983350	     66.11844510
      0.00833330	      4.11698998	      1.61677822	     -0.95440264	     -0.98818890	      1.31790920	     -0.08510817	     -5.96820909	     -2.21489288	      9.04999245	      2.47116695	      0.04313000	     11.36242020	     -9.71335899	     -6.50053562	     -5.30686409	      0.61086435	      5.12436630	      2.33898856	      0.04082305	      7.79155934	     -9.60286667	     -6.50053562	    -17.11930031	     -0.87963710	      2.09360582	     11.03726924	     -5.22889133	     24.06998112	     26.25564273	     81.49001157	      9.23373851	     -5.80305622	     24.05869988	     28.04617116	     73.38742119
      0.01250000	      4.69931043	      1.63122132	     -1.27588371	     -0.98871336	      1.31941660	     -0.08411512	     -6.57959274	     -2.29111950	      9.56645675	      2.19713540	      0.03834725	     11.45122254	     -9.73039438	     -6.67759241	     -6.18451422	      0.67042830	      5.58648451	      1.81734197	      0.03171860	      7.90939425	    -10.09297866	     -6.67759241	    -17.95400594	     -1.12908101	      2.40582736	     11.24923105	     -4.79823607	     23.34979555	     25.90368932	     79.83368748	      9.58811327	     -5.65647584	     23.23084411	     27.76145094	     72.35539743
      0.01666670	      4.86152707	      1.60033614	     -1.49875709	     -0.98914962	      1.31861228	     -0.08388572	     -6.75159532	     -2.27898402	     10.20790563	      2.03946188	      0.03559532	     11.19626883	    -10.18808073	     -7.09909443	     -6.48962727	      0.64823090	      5.77906185	      1.55905160	      0.02721058	      7.88660874	    -10.97822224	     -7.09909443	    -18.48235212	     -1.21014584	      2.78967915	     10.77348652	     -4.42463569	     19.03019858	     26.93479825	     88.69019912	      9.44396484	     -5.43206357	     20.24027446	     28.56140274	     80.75722678
      0.02083330	      5.01621107	      1.57950302	     -1.75846435	     -0.98971075	      1.32221803	     -0.08360425	     -6.89878698	     -2.31236667	     10.57459388	      1.95920048	      0.03419450	     10.86271084	    -10.39221005	     -7.31698649	     -6.73661288	      0.65325031	      5.96600866	      1.46901890	      0.02563922	      7.79618184	    -11.47554879	     -7.31698649	    -18.78198381	     -1.22792659	      3.01181030	     10.86471452	     -4.43861441	     19.30114199	     27.07706922	     89.49370508	      9.45251519	     -5.30094806	     19.28599214	     28.66339209	     83.42926525
      0.02500000	      5.07139373	      1.53952439	     -1.94565562	     -0.98910048	      1.31857696	     -0.08295203	     -6.93000149	     -2.28432029	     11.11606756	      1.95037951	      0.03404054	     10.55221912	    -10.85345068	     -7.31292740	     -6.81937628	      0.63281160	      6.02293368	      1.40446375	      0.02451252	      7.98104670	    -11.62569671	     -7.31292740	    -18.85209500	     -1.20835644	      3.32044597	     10.77477044	     -4.56431173	     19.89322294	     27.40858740	     89.17012310	      9.43940935	     -5.28257394	     19.42804846	     29.02670343	     83.37524070
      0.02916670	      5.02677723	      1.54826468	     -1.97998806	     -0.98940902	      1.31929704	     -0.08319235	     -6.88058166	     -2.31322268	     11.16968634	      1.97924119	      0.03454428	     10.32068047	    -10.97998512	     -7.42969113	     -6.75907614	      0.67403538	      6.43986691	      1.40525860	      0.02452639	      7.80255728	    -12.05293255	     -7.42969113	    -18.75541292	     -1.19357854	      3.33126841	     10.87131823	     -4.80211945	     21.42026830	     27.50290712	     89.10504516	      9.40972533	     -5.23689840	     18.97848306	     29.13930112	     87.38514266
      0.03333330	      5.05985735	      1.53826048	     -2.04535394	     -0.98973131	      1.31765932	     -0.08281092	     -6.90478400	     -2.31747689	     11.44309559	      1.97787469	      0.03452043	      9.97721883	    -11.54975987	     -7.44717519	     -6.76923410	      0.68584921	      6.52215964	      1.45477655	      0.02539064	      7.72251031	    -12.57604236	     -7.44717519	    -18.77919765	     -1.19447078	      3.47933926	     10.89785657	     -5.08033015	     23.01572388	     27.74406484	     86.59785846	      9.48514327	     -5.31888392	     19.90882066	     29.35458416	     85.16230231
      0.03750000	      4.88290140	      1.53092147	     -2.06665555	     -0.99018453	      1.32016737	     -0.08315180	     -6.64602411	     -2.32082058	     11.55769286	      2.02126241	      0.03527768	      9.77670754	    -11.81623028	     -7.47781602	     -6.57619265	      0.66746789	      6.64169814	      1.52566752	      0.02662792	      7.50120049	    -13.13056524	     -7.47781602	    -18.61069273	     -1.14551480	      3.45042044	     10.99594896	     -5.22379088	     23.65568390	     27.70097087	     88.95675368	      9.45677715	     -5.25154709	     19.22530699	     29.26924877	     89.16779625
      0.04166670	      4.84792470	      1.50279728	     -2.11551388	     -0.98914887	      1.31787839	     -0.08247023	     -6.62003734	     -2.29652379	     11.66962950	      2.00811993	      0.03504830	      9.50983479	    -12.17537618	     -7.48166217	     -6.52736182	      0.63903287	      6.66467124	      1.57836565	      0.02754768	      7.50648450	    -13.12805562	     -7.48166217	    -18.53611363	     -1.13249780	      3.52528424	     10.94692269	     -5.25294799	     24.11022533	     27.62093818	     86.44816768	      9.51404762	     -5.18513119	     19.46563744	     29.02270397	     86.65138277
      0.04583330	      4.91128248	      1.49796106	     -2.06863705	     -0.98938771	      1.32039870	     -0.08403862	     -6.71955091	     -2.31459513	     11.73191096	      1.92988849	      0.03368291	      9.08949029	    -12.67642838	     -7.48673861	     -6.59457761	      0.66508888	      6.93990381	      1.59218946	      0.02778895	      7.05685478	    -13.82203299	     -7.48673861	    -18.66205194	     -1.07485186	      3.45891550	     10.97747475	     -5.67041604	     25.87919205	     28.09510548	     84.40982681	      9.52946803	     -5.48059185	     21.08166119	     29.38210748	     84.65028962
      0.05000000	      4.80533222	      1.49358000	     -2.04926636	     -0.98739420	      1.32020502	     -0.08258588	     -6.66049774	     -2.28460623	     11.79655710	      1.89155944	      0.03301394	      8.97993090	    -12.62959347	     -7.49367174	     -6.51120069	      0.64298844	      7.12535776	      1.63538533	      0.02854286	      6.84151762	    -13.92257357	     -7.49367174	    -18.42731444	     -1.07956808	      3.46925634	     10.78505161	     -5.60527714	     24.92404832	     27.93362886	     90.03122146	      9.33586623	     -5.37896634	     19.79150744	     29.20422800	     90.81564194
      0.05416670	      4.77068221	      1.49263085	     -2.01539370	     -0.98577672	      1.32106711	     -0.08181013	     -6.71680045	     -2.25158192	     11.89960811	      1.83206727	      0.03197561	      8.83054145	    -12.69259235	     -7.49547098	     -6.52304178	      0.62100325	      7.23360554	      1.65267719	      0.02884466	      6.76135336	    -13.86320854	     -7.49547098	    -18.27127283	     -1.09190765	      3.46317485	     10.58377502	     -5.63437290	     24.89031493	     27.92906022	     90.72239219	      9.19914392	     -5.43038148	     19.87567101	     29.07130107	     91.42890939
      0.05833330	      4.81608637	      1.46720018	     -2.05428388	     -0.98542665	      1.32073492	     -0.08339830	     -6.84183681	     -2.23662524	     12.07390967	      1.73903050	      0.03035181	      8.61917376	    -12.89379834	     -7.49743826	     -6.63783489	      0.59362156	      7.30882640	      1.63647206	      0.02856183	      6.60914302	    -13.97230324	     -7.49743826	    -18.24832171	     -1.06160246	      3.51912705	     10.45228374	     -5.71097276	     24.92281272	     27.90085019	     91.17158752	      9.10141290	     -5.44194525	     20.11523369	     28.88689449	     91.57344456
      0.06250000	      4.83486583	      1.46740916	     -2.09440705	     -0.98568159	      1.31980629	     -0.08278140	     -6.87542170	     -2.23006876	     12.31942950	      1.64803428	      0.02876362	      8.59162008	    -13.01424196	     -7.49880987	     -6.71362856	      0.57011282	      7.35218768	      1.67890168	      0.02930236	      6.56939655	    -14.30295891	     -7.49880987	    -18.22546124	     -1.06173255	      3.57577674	     10.37161256	     -5.76039982	     24.94303566	     27.85246153	     91.31763680	      9.03064277	     -5.47110632	     20.23836433	     28.78594630	     91.61937482
      0.06666670	      4.91667086	      1.49779986	     -2.05636554	     -0.98582867	      1.32289950	     -0.08296326	     -7.02103151	     -2.28858774	     12.27201479	      1.55577797	      0.02715345	      8.47117512	    -13.05577329	     -7.49956984	     -6.84003304	      0.58262469	      7.53994698	      1.71194702	      0.02987911	      6.22804077	    -14.80145256	     -7.49956984	    -18.33530268	     -1.05739233	      3.54716790	     10.35347131	     -5.79974411	     24.80886623	     27.77142968	     92.12345292	      9.10620323	     -5.48590789	     20.47164395	     28.55302923	     92.28211485
